<?xml version="1.0" standalone="no"?>
<!DOCTYPE svg PUBLIC "-//W3C//DTD SVG 20010904//EN"
 "http://www.w3.org/TR/2001/REC-SVG-20010904/DTD/svg10.dtd">
<svg version="1.0" xmlns="http://www.w3.org/2000/svg"
 width="1233.000000pt" height="600.000000pt" viewBox="0 0 1233.000000 600.000000"
 preserveAspectRatio="xMidYMid meet">
<metadata>
Created by potrace 1.16, written by Peter Selinger 2001-2019
</metadata>
<g transform="translate(0.000000,600.000000) scale(0.100000,-0.100000)"
fill="#000000" stroke="none">
<path d="M2430 5778 c-14 -6 -56 -17 -95 -24 -38 -7 -92 -20 -120 -29 -84 -28
-159 -57 -175 -66 -8 -5 -22 -12 -30 -15 -35 -13 -58 -26 -115 -64 -33 -22
-73 -47 -90 -55 -45 -21 -214 -178 -297 -276 -47 -56 -144 -196 -166 -239 -6
-14 -16 -32 -21 -40 -5 -8 -19 -40 -31 -70 -12 -30 -31 -73 -41 -96 -11 -23
-19 -51 -19 -63 0 -27 -37 -102 -59 -118 -9 -7 -26 -13 -39 -13 -30 0 -108
-45 -149 -86 -17 -17 -45 -60 -62 -94 -29 -58 -31 -69 -31 -175 0 -62 6 -148
14 -191 8 -44 17 -104 21 -134 8 -69 49 -154 95 -197 49 -46 124 -83 168 -83
97 0 116 -12 157 -95 18 -36 129 -199 160 -235 16 -19 56 -61 88 -93 74 -73
73 -87 -12 -144 l-65 -43 -145 0 c-129 0 -150 2 -176 20 -16 11 -38 20 -47 20
-9 0 -21 6 -25 13 -4 6 -27 25 -50 41 -60 40 -67 51 -74 115 -4 31 -11 70 -17
86 -6 17 -16 49 -21 71 -6 23 -28 61 -49 84 -32 36 -43 43 -79 44 -51 1 -80
-23 -119 -98 -14 -28 -28 -52 -29 -54 -1 -2 -27 11 -56 27 -30 17 -63 35 -74
40 -91 40 -114 46 -190 46 -70 0 -85 -4 -122 -28 -27 -17 -43 -35 -43 -47 0
-11 -24 -44 -52 -72 -72 -71 -91 -102 -111 -178 -17 -63 -17 -67 2 -130 21
-74 87 -206 128 -259 16 -20 42 -56 58 -81 17 -25 32 -47 35 -50 3 -3 18 -25
35 -50 35 -54 230 -256 286 -296 22 -16 63 -46 89 -67 27 -20 56 -37 63 -37 8
0 26 -9 40 -20 14 -11 31 -20 39 -20 7 0 27 -9 43 -20 17 -11 37 -20 45 -20 8
0 29 -7 45 -16 17 -9 44 -20 60 -23 39 -9 55 -43 67 -140 5 -42 16 -107 24
-146 8 -38 19 -120 24 -182 6 -61 15 -124 20 -138 13 -33 18 -180 7 -191 -4
-5 -20 7 -35 26 -53 71 -150 157 -185 165 -14 4 -31 13 -38 21 -8 10 -38 14
-113 14 -114 0 -151 -13 -218 -78 -61 -58 -86 -121 -119 -292 -13 -66 -4 -216
16 -284 8 -27 15 -70 15 -95 0 -26 7 -56 15 -68 8 -11 17 -40 21 -64 3 -24 13
-54 20 -66 8 -12 14 -31 14 -41 0 -10 9 -35 20 -57 11 -22 20 -44 20 -50 0 -6
9 -27 20 -48 11 -20 20 -43 20 -50 0 -22 57 -92 98 -120 21 -15 50 -27 66 -27
15 0 41 -7 57 -16 25 -13 58 -15 182 -11 84 2 162 7 173 11 16 6 30 0 55 -21
78 -67 -14 -63 1436 -63 1265 0 1313 1 1373 19 34 11 68 28 75 38 12 16 29 18
202 15 157 -3 191 -1 208 12 11 8 31 16 45 16 14 0 36 7 50 15 14 8 31 17 39
21 24 12 70 68 71 85 0 9 6 22 14 28 7 6 16 26 20 44 3 17 12 46 20 62 8 17
23 55 33 85 49 138 63 187 63 216 0 18 9 51 20 75 17 39 20 66 20 234 0 171
-2 194 -20 228 -11 20 -20 44 -20 53 0 25 -68 122 -98 141 -15 9 -39 24 -54
34 -40 28 -208 27 -259 0 -49 -26 -83 -18 -75 18 24 99 29 163 18 213 -6 29
-16 78 -23 108 -6 30 -20 73 -30 96 -11 23 -19 48 -19 57 0 9 -4 18 -9 21 -4
3 -11 36 -14 73 -6 67 -8 69 -61 119 -30 28 -62 67 -70 85 -20 41 -75 136 -98
169 -10 14 -18 30 -18 37 0 7 -5 13 -10 13 -6 0 -15 10 -20 23 -6 12 -23 43
-39 68 -23 37 -30 62 -36 130 -6 79 -34 175 -61 209 -6 8 -15 25 -18 37 -9 27
-98 117 -147 149 -67 42 -66 51 9 136 130 145 142 160 142 169 0 5 15 31 34
57 18 27 36 58 40 69 4 12 13 27 21 33 8 7 15 19 15 27 0 8 9 26 20 40 11 14
20 35 20 47 0 12 7 31 15 43 9 12 19 41 24 65 5 24 18 66 28 93 18 49 20 50
71 59 29 5 52 13 52 18 0 4 15 14 33 22 35 15 117 93 117 112 0 6 10 24 23 40
21 28 22 35 19 213 -4 318 -50 439 -202 532 -14 9 -68 24 -119 34 -76 15 -94
22 -101 40 -4 11 -15 27 -24 34 -9 7 -16 20 -16 27 0 8 -16 37 -35 64 -19 27
-35 53 -35 56 0 9 -126 159 -177 209 -88 88 -297 245 -327 245 -7 0 -21 9 -31
20 -10 11 -28 20 -40 20 -13 0 -28 6 -34 14 -7 8 -27 18 -44 22 -17 3 -41 12
-52 19 -11 7 -42 18 -70 24 -27 7 -54 16 -60 21 -5 4 -36 11 -69 15 -32 4 -76
13 -98 21 -50 17 -438 19 -478 2z m406 -62 c73 -8 140 -19 150 -24 11 -6 40
-13 67 -17 26 -4 50 -11 53 -16 2 -5 24 -13 47 -19 67 -18 201 -85 305 -154
95 -62 213 -158 221 -180 2 -6 11 -16 19 -22 10 -7 11 -13 5 -17 -6 -4 -16 0
-23 8 -7 8 -18 15 -24 15 -7 0 -43 15 -82 34 -104 51 -235 97 -339 118 -27 5
-77 17 -110 26 -90 25 -739 24 -804 -1 -24 -9 -59 -17 -77 -17 -19 0 -60 -8
-91 -19 -32 -10 -76 -23 -98 -29 -61 -16 -146 -47 -206 -75 -30 -14 -65 -31
-79 -37 -14 -5 -38 -19 -55 -30 -16 -11 -46 -29 -65 -40 -19 -11 -50 -29 -67
-40 -32 -19 -33 -19 -33 -1 0 26 118 151 218 229 170 134 356 228 523 266 31
7 61 16 68 20 13 8 225 32 301 35 25 0 104 -5 176 -13z m124 -301 c177 -16
319 -49 505 -118 63 -24 196 -95 237 -128 20 -16 40 -29 45 -29 12 0 153 -136
153 -148 0 -5 9 -12 20 -15 13 -3 18 -10 14 -21 -5 -14 -12 -11 -43 16 -36 32
-79 67 -133 108 -14 11 -31 20 -36 20 -5 0 -15 6 -21 14 -7 8 -38 26 -69 41
-31 14 -70 32 -87 40 -35 17 -105 42 -155 56 -19 6 -55 17 -80 25 -25 7 -72
17 -105 20 -33 4 -85 13 -115 20 -78 20 -565 20 -658 0 -37 -8 -96 -17 -132
-21 -36 -3 -87 -12 -115 -20 -79 -22 -167 -45 -209 -56 -21 -5 -48 -16 -60
-24 -11 -8 -28 -15 -37 -15 -23 0 -169 -76 -258 -134 -80 -52 -241 -200 -241
-221 0 -14 -25 -27 -33 -18 -26 25 161 231 278 308 33 22 63 43 66 47 9 13
243 128 259 128 8 0 32 9 53 20 20 11 45 20 54 20 9 0 44 9 77 19 101 32 207
52 348 65 177 18 292 18 478 1z m-400 -329 c0 -3 -117 -62 -180 -90 -8 -4 -33
-18 -55 -31 -22 -14 -51 -30 -65 -37 -14 -7 -47 -30 -73 -50 -27 -21 -53 -38
-58 -38 -14 0 -259 -250 -259 -264 0 -7 -9 -21 -20 -31 -11 -10 -20 -22 -20
-27 0 -6 -9 -21 -20 -35 -11 -14 -20 -34 -20 -44 0 -11 -4 -19 -9 -19 -5 0
-15 -17 -22 -37 -7 -21 -18 -47 -24 -58 -7 -11 -16 -33 -19 -49 -4 -15 -14
-35 -21 -43 -8 -8 -15 -26 -15 -39 0 -14 -9 -42 -20 -64 -11 -22 -20 -50 -20
-62 0 -13 -7 -31 -15 -41 -7 -11 -16 -38 -20 -60 -3 -23 -12 -58 -20 -77 -7
-19 -17 -53 -21 -75 -6 -33 -8 -36 -12 -15 -2 14 -12 52 -23 84 -10 33 -19 80
-19 106 0 25 -6 70 -14 100 -21 81 -22 194 -3 278 9 40 17 87 17 104 0 26 18
72 51 128 5 8 15 26 21 40 13 26 128 150 139 150 12 0 89 53 89 61 0 4 11 10
25 13 14 4 25 10 25 15 0 5 13 12 29 16 16 3 35 13 42 21 6 8 17 14 24 14 6 0
33 11 59 25 26 14 57 25 69 25 13 0 31 6 42 14 11 7 38 16 60 20 21 4 51 13
65 20 14 8 54 16 90 20 36 3 88 12 115 20 49 13 105 20 105 12z m1625 -247
c65 -29 127 -95 153 -164 18 -47 23 -87 28 -228 8 -194 -1 -259 -42 -313 -33
-43 -102 -94 -127 -94 -18 0 -19 6 -15 68 8 102 -9 388 -28 472 -8 41 -27 111
-40 155 -31 103 -31 125 0 125 13 0 45 -9 71 -21z m-447 -231 c23 -13 42 -27
42 -31 0 -5 9 -20 20 -34 17 -22 20 -41 20 -140 0 -100 -3 -119 -22 -155 -27
-47 -64 -88 -81 -88 -7 0 -24 -6 -38 -14 -42 -22 -109 7 -151 64 -31 44 -32
47 -32 152 0 84 3 110 16 125 8 10 18 27 22 38 8 27 53 75 70 75 8 0 19 7 26
15 18 21 58 19 108 -7z m-2582 -303 c1 -162 5 -239 14 -260 7 -16 16 -64 20
-105 4 -41 17 -102 29 -134 27 -75 17 -92 -43 -75 -45 12 -54 19 -113 78 -24
24 -46 56 -49 70 -2 14 -13 58 -24 96 -26 96 -42 306 -28 369 14 64 61 132
117 167 78 50 76 55 77 -206z m2361 -383 c40 -50 36 -85 -17 -146 -37 -42 -59
-45 -94 -12 -22 19 -26 32 -26 77 1 54 17 88 50 102 24 10 72 -2 87 -21z
m-2666 -463 c30 -16 65 -106 78 -199 9 -66 17 -89 41 -120 50 -64 149 -127
233 -150 76 -20 78 -29 72 -220 -4 -104 -14 -202 -26 -265 -12 -55 -23 -109
-25 -120 -9 -45 -86 -166 -111 -176 -15 -5 -33 -19 -41 -31 -12 -17 -22 -19
-56 -15 -48 7 -200 70 -241 100 -34 25 -87 57 -95 57 -5 0 -13 6 -17 13 -4 6
-35 34 -68 61 -151 124 -340 366 -459 587 -35 66 -46 96 -46 131 0 72 55 158
124 193 11 6 23 25 27 44 13 62 38 76 137 75 92 -1 131 -14 227 -75 71 -46 72
-49 41 -140 -21 -60 -26 -91 -21 -120 9 -50 21 -50 35 2 6 23 26 69 44 103 18
34 36 80 40 102 18 94 39 152 60 162 27 14 24 14 47 1z m2669 -318 c0 -5 -21
-23 -47 -40 -27 -17 -57 -38 -68 -46 -10 -8 -23 -15 -29 -15 -5 0 -17 -6 -25
-13 -23 -19 -205 -97 -227 -97 -11 0 -32 -7 -48 -15 -16 -8 -47 -18 -70 -21
-22 -3 -68 -13 -101 -22 -87 -22 -387 -22 -471 1 -34 9 -74 17 -88 17 -33 0
-266 78 -287 96 -8 8 -21 14 -27 14 -6 0 -23 11 -38 25 -15 14 -35 25 -45 25
-11 0 -19 5 -19 10 0 14 25 12 65 -5 37 -15 128 -40 285 -77 87 -21 118 -23
355 -22 171 0 277 5 310 13 28 7 79 19 115 26 60 13 121 30 245 69 28 9 82 32
120 51 72 35 95 42 95 26z m124 -149 c32 -33 63 -67 68 -77 6 -9 18 -25 27
-34 9 -10 23 -28 31 -41 8 -12 24 -35 35 -49 48 -62 133 -188 185 -274 19 -32
52 -83 72 -115 21 -31 38 -61 38 -65 0 -5 9 -20 20 -34 11 -14 20 -41 20 -59
l0 -34 -173 0 c-197 0 -197 0 -215 80 -35 151 -102 283 -130 255 -8 -8 16
-143 39 -218 12 -38 18 -79 15 -92 l-6 -25 -1004 0 -1004 0 -6 25 c-3 13 1 44
9 67 9 24 22 81 30 128 8 47 17 100 21 118 3 17 2 32 -2 32 -11 -1 -64 -83
-64 -98 0 -6 -18 -48 -40 -93 -22 -46 -40 -94 -40 -108 0 -54 -7 -56 -172 -56
l-153 0 2 35 c2 39 27 160 48 235 9 31 17 125 21 252 8 227 -1 208 98 223 102
15 178 31 242 51 81 25 126 24 161 -3 31 -26 39 -30 150 -89 43 -23 89 -45
103 -50 14 -4 57 -20 95 -34 39 -15 117 -38 175 -52 97 -24 123 -26 330 -27
181 -1 236 3 280 16 30 9 74 19 97 23 23 4 77 20 120 37 43 16 87 32 98 36 30
8 182 90 249 134 33 21 62 38 66 38 3 0 32 -26 64 -58z m310 -873 c14 -13 223
-11 248 2 30 16 68 -3 68 -36 0 -20 -5 -25 -24 -25 -13 0 -29 7 -36 15 -17 21
-242 22 -259 1 -7 -8 -27 -17 -46 -20 -43 -8 -125 -44 -125 -55 0 -4 -9 -18
-20 -31 -11 -13 -20 -28 -20 -35 0 -7 -9 -20 -20 -30 -11 -10 -20 -29 -20 -42
0 -12 -9 -32 -20 -43 -14 -14 -20 -33 -20 -65 0 -31 -5 -47 -17 -54 -16 -9
-18 -30 -18 -226 0 -195 2 -218 18 -229 9 -7 17 -21 17 -31 0 -9 9 -19 20 -22
14 -4 20 -14 20 -34 0 -16 -5 -29 -10 -29 -6 0 -16 -12 -22 -27 -7 -16 -36
-51 -65 -80 -29 -28 -53 -56 -53 -62 0 -6 -7 -11 -15 -11 -8 0 -19 -9 -25 -20
-6 -11 -19 -20 -29 -20 -10 0 -26 -9 -36 -20 -10 -11 -24 -20 -32 -20 -7 0
-13 -5 -13 -11 0 -5 -15 -16 -34 -24 -19 -8 -37 -19 -41 -25 -3 -5 -14 -10
-24 -10 -10 0 -30 -9 -44 -20 -14 -11 -32 -20 -40 -20 -8 0 -26 -9 -40 -20
-14 -11 -32 -20 -40 -20 -8 0 -26 -9 -40 -20 -14 -11 -40 -20 -60 -20 -20 0
-42 -6 -49 -14 -8 -7 -34 -17 -59 -21 -24 -4 -51 -13 -59 -20 -8 -7 -42 -16
-75 -20 -33 -4 -67 -13 -75 -20 -8 -7 -44 -16 -79 -20 -36 -4 -70 -13 -77 -20
-7 -6 -49 -15 -94 -18 -54 -3 -87 -11 -99 -21 -14 -13 -41 -16 -131 -16 -87 0
-117 -4 -130 -15 -12 -11 -49 -16 -136 -19 -178 -6 -267 -15 -278 -26 -15 -15
-43 -12 -50 5 -3 9 -18 15 -35 15 -16 0 -31 -6 -35 -15 -4 -11 -21 -15 -66
-15 -34 0 -70 -5 -81 -11 -15 -8 -26 -7 -43 5 -20 13 -25 28 -35 121 -7 59
-16 116 -20 128 -5 12 -12 60 -16 107 -3 47 -11 103 -17 125 -6 22 -16 85 -23
140 -21 167 -45 328 -57 375 -6 25 -16 97 -24 160 -16 136 -30 236 -49 345
-22 129 -26 179 -16 195 9 13 148 16 1118 20 1221 6 1693 2 1707 -11z m236
-139 c89 -21 95 -25 137 -110 26 -51 28 -66 31 -195 3 -121 1 -149 -19 -215
-12 -41 -30 -91 -39 -110 -10 -19 -30 -60 -44 -91 -40 -84 -61 -100 -148 -110
-183 -21 -251 -4 -315 79 -98 129 -96 397 6 604 42 85 82 123 156 147 78 25
136 25 235 1z m-3296 -560 c119 -58 234 -228 261 -385 4 -21 13 -52 21 -67 8
-15 14 -40 14 -56 0 -16 8 -40 18 -53 20 -25 31 -94 56 -334 l14 -130 -44 -44
c-27 -28 -44 -54 -44 -68 0 -52 -15 -63 -86 -63 l-66 0 7 37 c4 21 13 50 21
65 17 32 20 278 4 308 -6 11 -17 67 -25 126 -9 58 -19 113 -24 122 -5 10 -11
40 -15 67 -4 28 -13 64 -20 80 -8 17 -18 48 -24 70 -28 110 -99 270 -132 300
-21 19 -16 45 8 45 9 0 34 -9 56 -20z m3665 6 c9 -10 8 -16 -3 -25 -18 -15
-76 -116 -76 -132 0 -7 -8 -30 -19 -53 -30 -67 -88 -268 -111 -386 -7 -36 -19
-99 -28 -140 -31 -161 -25 -354 15 -433 17 -34 8 -39 -68 -35 -50 3 -54 5 -59
33 -10 45 -28 76 -67 113 -29 27 -34 37 -28 60 15 59 25 140 25 203 0 69 28
216 53 284 9 22 18 57 22 77 3 20 12 50 20 65 8 15 15 34 15 41 0 7 13 30 29
50 36 45 77 122 86 159 6 31 59 79 120 112 46 25 59 26 74 7z m-3831 -25 c20
-10 44 -27 53 -37 23 -26 59 -103 51 -108 -4 -2 -25 -7 -47 -11 -22 -4 -47 -9
-55 -13 -33 -14 -201 -28 -208 -17 -15 24 20 127 54 156 27 24 76 48 97 49 10
0 34 -9 55 -19z m4028 -1 c60 -25 93 -71 101 -142 l6 -51 -83 6 c-45 4 -96 11
-114 16 -17 5 -49 13 -71 18 -35 7 -40 11 -37 33 5 38 52 99 91 120 46 24 48
24 107 0z m-116 -246 c47 -9 118 -22 158 -29 40 -7 75 -15 79 -19 3 -3 8 -30
11 -59 6 -77 -1 -81 -140 -68 -103 10 -267 36 -275 45 -6 6 26 118 38 132 15
18 25 17 129 -2z m-3751 -41 c7 -27 14 -57 17 -69 5 -18 -2 -22 -83 -37 -48
-9 -135 -22 -193 -28 -118 -12 -130 -6 -130 57 0 67 12 80 87 92 37 6 86 15
108 20 22 5 72 10 111 11 l71 1 12 -47z m3716 -194 c44 -6 118 -17 165 -23
l85 -11 -2 -64 c-1 -35 -6 -68 -11 -73 -10 -10 -232 8 -276 22 -16 6 -50 10
-76 10 -25 0 -54 6 -63 13 -16 11 -16 16 -1 67 9 30 18 61 20 68 2 8 16 11 41
7 21 -3 74 -10 118 -16z m-3668 3 c6 -4 15 -35 18 -68 l7 -60 -83 -17 c-46 -9
-120 -19 -164 -22 -44 -3 -97 -8 -117 -10 -55 -7 -78 19 -78 90 l0 55 38 0
c34 0 78 6 202 29 58 11 162 13 177 3z m57 -259 c10 -62 7 -121 -6 -130 -16
-10 -255 -42 -319 -42 -26 -1 -51 5 -57 12 -13 16 -44 136 -37 147 3 4 38 11
78 15 41 3 98 12 128 20 30 7 88 13 130 14 l76 1 7 -37z m3586 26 c36 -6 103
-16 150 -23 82 -11 85 -12 81 -36 -1 -14 -9 -36 -16 -50 -7 -14 -16 -40 -20
-59 l-7 -34 -82 7 c-123 9 -258 27 -283 37 -19 7 -23 16 -23 51 0 24 5 60 11
81 l10 37 57 0 c31 0 86 -5 122 -11z m-482 -413 c12 -12 11 -16 -10 -30 -21
-14 -169 -15 -1388 -17 -948 0 -1373 2 -1392 10 -16 6 -28 17 -28 26 0 8 1 16
3 16 19 10 453 14 1517 11 1081 -2 1287 -4 1298 -16z"/>
<path d="M2733 1600 c-13 -5 -23 -14 -23 -20 0 -5 -11 -10 -24 -10 -35 0 -56
-10 -56 -26 0 -8 -8 -14 -19 -14 -16 0 -42 -19 -93 -67 -16 -15 -18 -15 -24 1
-8 21 -96 23 -118 1 -8 -8 -25 -15 -38 -15 -26 0 -88 -49 -88 -68 0 -7 -9 -12
-20 -12 -11 0 -20 -6 -20 -14 0 -8 -9 -18 -20 -21 -11 -3 -20 -12 -20 -18 0
-7 -9 -18 -20 -25 -49 -30 -6 -102 60 -102 29 0 40 -4 40 -15 0 -8 4 -15 9
-15 6 0 21 -11 35 -24 29 -26 34 -67 11 -86 -20 -17 -19 -53 3 -73 20 -19 67
-23 77 -7 10 16 17 12 56 -23 34 -31 35 -35 37 -107 1 -64 5 -78 24 -94 27
-22 96 -17 110 8 5 9 16 16 24 16 8 0 17 6 20 14 3 8 16 17 29 20 12 3 45 29
73 58 41 43 51 60 56 100 4 26 11 48 16 48 5 0 13 12 16 28 7 28 40 64 68 75
9 4 16 13 16 22 0 8 7 15 15 15 9 0 19 8 22 17 4 9 15 26 25 37 11 12 25 28
32 36 8 8 17 35 21 60 4 24 14 49 21 55 10 7 14 39 16 108 2 140 2 140 -184
144 -79 2 -153 -1 -165 -7z m97 -90 c11 -6 35 -35 56 -65 20 -30 40 -55 45
-55 5 0 14 -12 20 -26 27 -74 -65 -181 -221 -255 -98 -47 -128 -59 -147 -59
-10 0 -29 -7 -41 -16 -32 -22 -72 -11 -72 19 0 17 17 36 60 68 95 69 123 99
109 115 -16 20 -22 16 -195 -118 -12 -9 -44 15 -44 31 0 27 147 220 212 279
75 68 174 105 218 82z"/>
<path d="M2729 1424 c-17 -20 -18 -119 -1 -136 6 -6 37 -12 67 -12 73 -1 88
14 86 89 0 31 -3 61 -7 66 -3 5 -34 9 -68 9 -46 0 -67 -4 -77 -16z"/>
<path d="M5165 5100 c-129 -20 -273 -113 -351 -225 -61 -89 -100 -224 -91
-319 12 -141 35 -210 104 -308 33 -48 33 -48 33 -168 l0 -120 29 0 c16 0 34 6
40 14 7 8 24 17 39 21 15 4 34 13 42 20 27 24 97 37 138 25 86 -24 272 -1 342
41 8 5 30 16 49 25 18 8 39 20 47 27 31 26 108 108 118 126 49 86 76 149 76
176 0 18 7 49 15 69 13 30 13 47 4 99 -6 34 -14 82 -19 107 -4 25 -19 65 -33
90 -15 25 -34 59 -43 75 -22 41 -119 134 -157 151 -18 8 -39 19 -47 24 -72 45
-222 68 -335 50z m194 -80 c35 -5 67 -13 70 -18 3 -5 20 -13 36 -19 17 -5 29
-14 27 -19 -4 -13 -54 -7 -88 11 -45 23 -198 20 -276 -6 -71 -23 -150 -60
-159 -73 -4 -5 -11 -7 -17 -5 -14 5 14 38 53 64 102 67 207 87 354 65z m-136
-280 l38 -20 49 21 c42 18 54 20 79 9 39 -16 79 -60 81 -90 5 -65 0 -76 -82
-161 -104 -108 -119 -117 -156 -90 -31 23 -129 123 -160 165 -41 54 -20 118
54 167 37 24 50 24 97 -1z"/>
<path d="M10564 3724 c-65 -32 -78 -119 -25 -166 37 -33 78 -36 114 -8 62 49
52 146 -17 175 -42 18 -34 18 -72 -1z"/>
<path d="M7398 3680 c-271 -47 -448 -272 -448 -570 0 -291 173 -515 435 -563
l69 -13 12 -47 c29 -113 102 -185 213 -208 60 -12 171 -7 246 12 40 10 45 15
45 40 l0 28 -69 -6 c-38 -3 -85 -3 -105 1 -67 13 -148 106 -157 180 -4 27 1
32 64 64 129 65 237 206 272 353 33 143 11 345 -52 462 -36 65 -120 157 -181
195 -93 60 -240 90 -344 72z m152 -70 c103 -28 182 -115 226 -245 35 -105 45
-318 20 -434 -45 -211 -156 -321 -326 -321 -159 0 -265 97 -317 291 -24 90
-24 328 0 419 43 161 128 263 242 291 44 10 115 10 155 -1z"/>
<path d="M4250 3632 c0 -27 4 -30 39 -36 22 -3 53 -17 68 -30 l28 -24 0 -437
0 -437 -22 -18 c-13 -10 -45 -21 -73 -25 -44 -6 -50 -10 -50 -31 l0 -24 260 0
c302 0 370 10 496 70 141 68 243 197 275 347 16 80 6 242 -20 317 -56 158
-177 269 -356 327 -64 20 -95 22 -357 27 l-288 4 0 -30z m576 -63 c190 -71
296 -290 266 -551 -27 -244 -134 -367 -333 -385 -87 -8 -148 4 -181 37 l-28
28 0 446 0 445 38 4 c67 8 183 -4 238 -24z"/>
<path d="M5660 3327 c-222 -63 -326 -357 -211 -592 43 -87 104 -139 194 -167
154 -46 312 4 397 127 l30 44 -22 15 c-21 15 -24 13 -70 -38 -61 -69 -114 -91
-199 -83 -91 8 -145 45 -187 127 -23 46 -34 85 -39 133 l-6 67 253 0 253 0 -5
83 c-9 134 -55 215 -152 262 -64 31 -169 41 -236 22z m186 -89 c37 -41 54 -91
54 -160 l0 -48 -176 0 -177 0 7 51 c11 80 47 141 106 178 28 18 46 21 94 18
53 -3 62 -7 92 -39z"/>
<path d="M8285 3334 c-11 -1 -59 -6 -107 -9 -84 -7 -88 -8 -88 -30 0 -19 7
-25 34 -31 19 -3 45 -17 58 -31 23 -24 23 -29 28 -281 4 -224 7 -262 24 -294
67 -136 250 -146 394 -23 l41 36 3 -48 3 -48 70 2 c39 2 94 6 123 9 47 5 52 8
52 30 0 17 -6 24 -20 24 -30 0 -67 20 -79 44 -7 14 -12 128 -14 336 l-2 315
-40 -2 c-22 -1 -84 -5 -137 -8 -93 -7 -98 -8 -98 -30 0 -19 6 -23 46 -28 29
-3 54 -13 68 -26 20 -21 21 -32 24 -263 l3 -241 -33 -35 c-65 -68 -162 -91
-225 -52 -57 34 -58 38 -63 375 -5 301 -6 310 -25 311 -11 1 -29 0 -40 -2z"/>
<path d="M9280 3327 c-175 -50 -284 -246 -252 -455 34 -216 173 -335 377 -319
106 8 187 51 251 135 l35 47 -23 18 c-23 19 -23 19 -48 -14 -65 -87 -128 -116
-225 -106 -128 13 -202 102 -221 265 l-7 62 253 0 253 0 -5 83 c-8 138 -58
222 -161 267 -59 26 -166 34 -227 17z m186 -90 c35 -37 51 -83 56 -157 l3 -45
-175 0 -175 0 2 40 c4 58 21 102 56 142 43 49 81 64 146 60 47 -3 59 -9 87
-40z"/>
<path d="M9975 3334 c-11 -2 -59 -6 -107 -9 -82 -6 -88 -8 -88 -29 0 -17 10
-25 43 -36 73 -26 77 -44 77 -330 0 -281 -2 -290 -68 -304 -34 -8 -42 -14 -42
-33 l0 -23 196 0 c195 0 195 0 192 22 -2 17 -14 24 -56 34 -89 19 -87 12 -90
279 l-3 234 37 41 c37 41 67 61 112 74 21 7 22 4 22 -37 0 -83 69 -123 126
-74 25 22 29 32 29 80 0 45 -5 60 -24 81 -52 55 -153 38 -240 -40 -27 -24 -52
-44 -55 -44 -3 0 -6 27 -6 60 0 64 1 63 -55 54z"/>
<path d="M10620 3335 c-8 -2 -59 -7 -112 -10 -94 -7 -98 -8 -98 -30 0 -18 8
-25 44 -34 27 -6 53 -21 65 -37 20 -26 21 -39 21 -293 0 -202 -3 -271 -13
-285 -7 -9 -32 -20 -55 -23 -36 -5 -42 -9 -42 -29 l0 -24 180 0 180 0 0 24 c0
19 -7 25 -34 30 -18 4 -42 16 -52 27 -18 20 -19 46 -24 353 -5 322 -6 331 -25
333 -11 0 -27 -1 -35 -2z"/>
<path d="M11145 3327 c-89 -30 -163 -94 -205 -177 -108 -215 -33 -486 159
-573 68 -31 217 -31 284 0 56 26 99 60 139 110 34 43 35 59 7 74 -18 9 -24 8
-32 -6 -24 -43 -82 -95 -123 -111 -31 -12 -61 -15 -102 -11 -139 12 -213 99
-229 265 l-6 62 253 0 253 0 -6 78 c-10 138 -57 221 -151 267 -65 32 -179 42
-241 22z m166 -70 c45 -29 70 -84 77 -163 l5 -64 -178 0 -178 0 6 51 c4 28 16
72 28 96 45 92 163 132 240 80z"/>
<path d="M11832 3325 c-154 -48 -208 -222 -105 -336 44 -49 65 -60 195 -105
55 -19 111 -42 125 -51 75 -49 69 -169 -11 -207 -47 -22 -137 -21 -185 3 -49
26 -98 82 -128 148 -20 44 -29 53 -50 53 -25 0 -26 -1 -19 -52 3 -29 6 -88 6
-130 l0 -78 30 0 c19 0 30 5 30 14 0 27 19 27 72 0 103 -52 244 -41 335 26 55
41 83 100 83 176 0 117 -62 173 -268 245 -116 40 -152 71 -152 133 0 72 50
116 132 116 87 -1 161 -57 191 -146 10 -27 21 -40 35 -42 21 -3 22 0 22 76 0
44 -3 100 -6 126 -6 39 -10 46 -30 46 -14 0 -25 -8 -29 -21 -5 -14 -12 -18
-23 -14 -90 35 -180 42 -250 20z"/>
<path d="M6090 3297 c0 -17 11 -27 49 -45 59 -27 53 -15 212 -402 115 -278
118 -285 147 -288 28 -3 31 0 47 50 24 70 232 554 256 594 11 18 39 41 64 53
31 15 45 27 45 41 0 19 -7 20 -145 20 l-145 0 0 -23 c0 -19 8 -26 38 -35 21
-7 46 -20 56 -31 16 -18 16 -22 -2 -72 -30 -87 -164 -399 -171 -399 -8 0 -191
451 -191 471 0 11 15 20 45 28 38 10 45 15 45 36 l0 25 -175 0 c-175 0 -175 0
-175 -23z"/>
</g>
</svg>
